<svg width="117" height="29" viewBox="0 0 117 29" fill="none" xmlns="http://www.w3.org/2000/svg">
<g clip-path="url(#clip0_0_46)">
<path d="M24.3833 23.2047C25.8996 21.637 27.0062 20.188 27.6731 18.8991C28.9359 16.4568 28.4738 14.8189 27.8639 13.8751C27.1231 12.7283 26.0259 12.0894 24.693 12.0267C22.1693 11.9098 18.7775 13.9508 14.3531 18.2621C17.2014 11.4178 18.1237 6.66789 17.1733 3.74854C16.744 2.42964 15.9068 1.45028 14.7516 0.918044C13.733 0.448477 12.6442 0.372711 11.6022 0.699162C10.7182 0.976038 9.85391 1.54476 9.03263 2.38754C6.91023 4.56513 4.88324 8.75475 2.99468 14.8554V1.26507H0.00143324V27.4167C-0.00137293 27.4785 -0.00137293 27.5374 0.00143324 27.5945V28.4981H2.84315L2.99468 27.5281C3.08261 26.8144 4.04794 21.6482 5.75315 16.0723C7.79792 9.3824 10.1037 4.88971 12.0773 3.74667C12.5927 3.44828 13.0174 3.41554 13.4973 3.63723C13.7666 3.76163 14.1034 3.99174 14.3269 4.67645C14.731 5.91864 15.2165 9.2926 11.8182 17.3987C9.80807 22.1926 6.52485 28.4578 6.50147 28.499L9.51343 28.5018C9.53962 28.4681 12.2102 24.2663 15.4794 20.9653C21.1357 15.2548 23.7548 14.9817 24.5526 15.0181C24.852 15.0322 25.1027 15.1192 25.3487 15.5008C26.0324 16.5587 24.0878 19.16 22.2525 21.1028C19.2826 24.2458 13.6245 28.4962 13.6245 28.4962H17.2304H27.4187V25.5029H21.9672C22.7342 24.8257 23.5724 24.0447 24.3833 23.2065V23.2047Z" fill="#1F1F21"/>
</g>
<path d="M107.528 27.7433V16.0756H109.895V21.3761L113.979 16.0756H116.546L112.162 21.7261L116.962 27.7433H114.162L109.895 22.4262V27.7433H107.528Z" fill="#1F1F21"/>
<path d="M99.6867 27.9768C96.2197 27.9768 93.4695 25.3932 93.4695 21.9095C93.4695 18.4259 96.2197 15.8423 99.6867 15.8423C103.17 15.8423 105.921 18.4259 105.921 21.9095C105.921 25.3932 103.17 27.9768 99.6867 27.9768ZM99.6867 25.8932C101.87 25.8932 103.587 24.3931 103.587 21.9095C103.587 19.426 101.87 17.9258 99.6867 17.9258C97.5198 17.9258 95.7863 19.426 95.7863 21.9095C95.7863 24.3931 97.5198 25.8932 99.6867 25.8932Z" fill="#1F1F21"/>
<path d="M86.0948 27.9768C82.6278 27.9768 79.8776 25.3932 79.8776 21.9095C79.8776 18.4259 82.6278 15.8423 86.0948 15.8423C89.5785 15.8423 92.3287 18.4259 92.3287 21.9095C92.3287 25.3932 89.5785 27.9768 86.0948 27.9768ZM86.0948 25.8932C88.2784 25.8932 89.9952 24.3931 89.9952 21.9095C89.9952 19.426 88.2784 17.9258 86.0948 17.9258C83.9279 17.9258 82.1944 19.426 82.1944 21.9095C82.1944 24.3931 83.9279 25.8932 86.0948 25.8932Z" fill="#1F1F21"/>
<path d="M70.2033 27.7433V16.0756H74.3204C76.8873 16.0756 78.2541 17.2757 78.2541 19.0592C78.2541 20.3426 77.4374 21.1927 76.4873 21.6094C77.8041 21.9595 78.8042 22.9595 78.8042 24.443C78.8042 26.6099 77.0373 27.7433 74.9371 27.7433H70.2033ZM72.5702 20.7427H74.2371C75.6372 20.7427 75.9039 20.1426 75.9039 19.4259C75.9039 18.7091 75.6372 18.1091 74.2371 18.1091H72.5702V20.7427ZM72.5702 25.7098H74.7204C75.9706 25.7098 76.4373 25.1264 76.4373 24.243C76.4373 23.3596 75.9706 22.7762 74.7204 22.7762H72.5702V25.7098Z" fill="#1F1F21"/>
<path d="M54.169 27.7433L59.3361 16.0756H60.0362L65.2034 27.7433H62.9031L62.0364 25.7431H57.3359L56.4692 27.7433H54.169ZM58.1694 23.743H61.203L59.6862 20.2093L58.1694 23.743Z" fill="#1F1F21"/>
<path d="M39.3896 27.7433V16.0756H40.3897L46.807 23.0262V16.0756H49.1739V27.7433H48.1738L41.7565 20.7927V27.7433H39.3896Z" fill="#1F1F21"/>
<path d="M34.9627 27.7433V16.0756H37.3296V27.7433H34.9627Z" fill="#1F1F21"/>
<path d="M85.8296 12.2298V0.562073H93.247V2.56226H88.1965V5.22918H93.0636V7.22937H88.1965V10.2297H93.3137V12.2298H85.8296Z" fill="#1F1F21"/>
<path d="M76.3892 12.2298V0.562073H83.9899V2.5956H78.7561V5.62922H83.8066V7.66275H78.7561V12.2298H76.3892Z" fill="#1F1F21"/>
<path d="M71.9609 12.2298V0.562073H74.3278V12.2298H71.9609Z" fill="#1F1F21"/>
<path d="M62.2593 12.2298V0.562073H64.6262V10.2297H70.3267V12.2298H62.2593Z" fill="#1F1F21"/>
<path d="M51.2589 12.2298V7.29605L47.5586 0.562073H50.1755L52.4424 5.04583L54.7093 0.562073H57.3262L53.6258 7.29605V12.2298H51.2589Z" fill="#1F1F21"/>
<path d="M34.2955 12.2298L37.3958 0.562073H38.1626L41.4129 7.74609L44.6632 0.562073H45.4299L48.5302 12.2298H46.2133L44.5298 6.04593L41.6796 12.2298H41.1462L38.2959 6.04593L36.6124 12.2298H34.2955Z" fill="#1F1F21"/>
<defs>
<clipPath id="clip0_0_46">
<rect width="28.4742" height="28" fill="white" transform="translate(0 0.5)"/>
</clipPath>
</defs>
</svg>
